<?xml version="1.0" encoding="UTF-8" standalone="no"?>
<!DOCTYPE svg PUBLIC "-//W3C//DTD SVG 1.1//EN" "http://www.w3.org/Graphics/SVG/1.1/DTD/svg11.dtd">
<svg height="261" width="261" xmlns="http://www.w3.org/2000/svg" xmlns:xlink="http://www.w3.org/1999/xlink">
<defs>
	<linearGradient id="Blue">
		<stop stop-color="#069" offset="0"/>
	</linearGradient>
	<linearGradient id="Red">
		<stop stop-color="#900" offset="0"/>
	</linearGradient>
	<linearGradient id="Green">
		<stop stop-color="#396" offset="0"/>
	</linearGradient>
</defs>
<path fill="url(#Green)" d="m119.63 23.319-7.06 26.115a86.384 86.384 0 0 0 -20.701 7.539l-22.201-15.471-18.176 15.254 11.375 24.537a86.384 86.384 0 0 0 -11.006 19.087l-26.955 2.424-4.119 23.37 24.527 11.5a86.384 86.384 0 0 0 3.745 21.73l-19.039 19.13 11.863 20.55 26.185-6.96a86.384 86.384 0 0 0 16.836 14.26l-2.291 26.87 22.297 8.12 15.59-22.16a86.384 86.384 0 0 0 11 0.81 86.384 86.384 0 0 0 11 -0.79l15.58 22.14 22.3-8.12-2.3-26.97a86.384 86.384 0 0 0 16.87 -14.15l26.16 6.95 11.86-20.55-19.1-19.19a86.384 86.384 0 0 0 3.87 -21.7l24.47-11.47-4.12-23.37-26.89-2.416a86.384 86.384 0 0 0 -11.09 -19.046l11.39-24.578-18.18-15.252-22.15 15.436a86.384 86.384 0 0 0 -20.74 -7.467l-7.07-26.154h-23.73zm11.87 39.744a70.582 70.582 0 0 1 70.58 70.582 70.582 70.582 0 0 1 -70.58 70.58 70.582 70.582 0 0 1 -70.586 -70.58 70.582 70.582 0 0 1 70.586 -70.582z"/>
<path transform="scale(.65250)" d="m-17.717 336l-10.156 37.56h-16.113v26.44h487.98v-26.44h-13.16l-10.16-37.56h-36.36l-10.16 37.56h-43.83l-10.15-37.56h-36.37l-10.16 37.56h-43.82l-10.16-37.56h-36.37l-10.15 37.56h-43.83l-10.15-37.56h-36.371l-10.156 37.56h-43.826l-10.157-37.56h-36.367z" fill="url(#Blue)"/>
<circle cy="134.04" cx="131.49" r="24.057" fill="url(#Red)"/>
</svg>